HIERARCHY
ROOT hip
{
  OFFSET 0.00112043 5.09927 -9.65472
  CHANNELS 6 Xposition Yposition Zposition Zrotation Xrotation Yrotation
  JOINT abdomen
  {
    OFFSET 0 -1.186 -1.5018
    CHANNELS 3 Zrotation Xrotation Yrotation
    JOINT abdomen2
    {
      OFFSET 0 9.964 0.2134
      CHANNELS 3 Zrotation Xrotation Yrotation
      JOINT chest
      {
        OFFSET 0 13.134 -3.2573
        CHANNELS 3 Zrotation Xrotation Yrotation
        JOINT neck
        {
          OFFSET 0 20.686 -1.6905
          CHANNELS 3 Zrotation Xrotation Yrotation
          JOINT head
          {
            OFFSET 0 7.238 -0.1237
            CHANNELS 3 Zrotation Xrotation Yrotation
            End Site
            {
              OFFSET 0 0 0
            }
          }
        }
        JOINT lCollar
        {
          OFFSET 1.7069 20.075 5.0056
          CHANNELS 3 Zrotation Xrotation Yrotation
          JOINT lShldr
          {
            OFFSET 13.6458 -0.047 -4.849
            CHANNELS 3 Zrotation Xrotation Yrotation
            JOINT lForeArm
            {
              OFFSET 28.3255 -0.9759 2.2888
              CHANNELS 3 Zrotation Xrotation Yrotation
              JOINT lHand
              {
                OFFSET 22.1583 -0.53 10.8316
                CHANNELS 3 Zrotation Xrotation Yrotation
                JOINT lThumb1
                {
                  OFFSET 0.786 0.112 2.5817
                  CHANNELS 3 Zrotation Xrotation Yrotation
                  JOINT lThumb2
                  {
                    OFFSET 0.3601 -0.878 4.2331
                    CHANNELS 3 Zrotation Xrotation Yrotation
                    JOINT lThumb2_End
                    {
                      OFFSET 1.8127 -1.216 2.2227
                      CHANNELS 3 Zrotation Xrotation Yrotation
                      End Site
                      {
                        OFFSET 0.0181 -0.0122 0.0222
                      }
                    }
                  }
                }
                JOINT lCarpal1
                {
                  OFFSET 0.9571 1.114 1.7695
                  CHANNELS 3 Zrotation Xrotation Yrotation
                  JOINT lIndex1
                  {
                    OFFSET 4.1246 0.487 4.1451
                    CHANNELS 3 Zrotation Xrotation Yrotation
                    JOINT lIndex2
                    {
                      OFFSET 3.4052 -1.454 2.7682
                      CHANNELS 3 Zrotation Xrotation Yrotation
                      JOINT lIndex2_End
                      {
                        OFFSET 1.4531 -1.795 1.2713
                        CHANNELS 3 Zrotation Xrotation Yrotation
                        End Site
                        {
                          OFFSET 0.0145 -0.0179 0.0127
                        }
                      }
                    }
                  }
                  JOINT lMid1
                  {
                    OFFSET 5.6954 0.21 2.1184
                    CHANNELS 3 Zrotation Xrotation Yrotation
                    JOINT lMid2
                    {
                      OFFSET 3.9766 -1.54 2.3863
                      CHANNELS 3 Zrotation Xrotation Yrotation
                      JOINT lMid2_End
                      {
                        OFFSET 1.4042 -1.926 1.125
                        CHANNELS 3 Zrotation Xrotation Yrotation
                        End Site
                        {
                          OFFSET 0.014 -0.0193 0.0113
                        }
                      }
                    }
                  }
                }
                JOINT lCarpal2
                {
                  OFFSET 2.0956 0.66 -0.3894
                  CHANNELS 3 Zrotation Xrotation Yrotation
                  JOINT lRing1
                  {
                    OFFSET 5.0395 -0.09 2.4971
                    CHANNELS 3 Zrotation Xrotation Yrotation
                    JOINT lRing2
                    {
                      OFFSET 3.7921 -1.552 1.4806
                      CHANNELS 3 Zrotation Xrotation Yrotation
                      JOINT lRing2_End
                      {
                        OFFSET 1.4655 -1.808 0.9609
                        CHANNELS 3 Zrotation Xrotation Yrotation
                        End Site
                        {
                          OFFSET 0.0147 -0.0181 0.0096
                        }
                      }
                    }
                  }
                  JOINT lPinky1
                  {
                    OFFSET 4.9141 -1.269 0.3591
                    CHANNELS 3 Zrotation Xrotation Yrotation
                    JOINT lPinky2
                    {
                      OFFSET 3.1477 -1.685 0.8462
                      CHANNELS 3 Zrotation Xrotation Yrotation
                      JOINT lPinky2_End
                      {
                        OFFSET 0.8055 -1.585 0.7955
                        CHANNELS 3 Zrotation Xrotation Yrotation
                        End Site
                        {
                          OFFSET 0.0081 -0.0158 0.008
                        }
                      }
                    }
                  }
                }
              }
            }
          }
        }
        JOINT rCollar
        {
          OFFSET -1.7069 20.075 5.0056
          CHANNELS 3 Zrotation Xrotation Yrotation
          JOINT rShldr
          {
            OFFSET -13.6458 -0.047 -4.849
            CHANNELS 3 Zrotation Xrotation Yrotation
            JOINT rForeArm
            {
              OFFSET -28.3255 -0.9759 2.2888
              CHANNELS 3 Zrotation Xrotation Yrotation
              JOINT rHand
              {
                OFFSET -22.1583 -0.53 10.8316
                CHANNELS 3 Zrotation Xrotation Yrotation
                JOINT rThumb1
                {
                  OFFSET -0.786 0.112 2.5817
                  CHANNELS 3 Zrotation Xrotation Yrotation
                  JOINT rThumb2
                  {
                    OFFSET -0.3601 -0.878 4.2331
                    CHANNELS 3 Zrotation Xrotation Yrotation
                    JOINT rThumb2_End
                    {
                      OFFSET -1.8127 -1.216 2.2227
                      CHANNELS 3 Zrotation Xrotation Yrotation
                      End Site
                      {
                        OFFSET -0.0181 -0.0122 0.0222
                      }
                    }
                  }
                }
                JOINT rCarpal1
                {
                  OFFSET -0.9571 1.114 1.7695
                  CHANNELS 3 Zrotation Xrotation Yrotation
                  JOINT rIndex1
                  {
                    OFFSET -4.1246 0.487 4.1451
                    CHANNELS 3 Zrotation Xrotation Yrotation
                    JOINT rIndex2
                    {
                      OFFSET -3.4052 -1.454 2.7682
                      CHANNELS 3 Zrotation Xrotation Yrotation
                      JOINT rIndex2_End
                      {
                        OFFSET -1.4531 -1.795 1.2713
                        CHANNELS 3 Zrotation Xrotation Yrotation
                        End Site
                        {
                          OFFSET -0.0145 -0.018 0.0127
                        }
                      }
                    }
                  }
                  JOINT rMid1
                  {
                    OFFSET -5.6954 0.21 2.1184
                    CHANNELS 3 Zrotation Xrotation Yrotation
                    JOINT rMid2
                    {
                      OFFSET -3.9766 -1.54 2.3863
                      CHANNELS 3 Zrotation Xrotation Yrotation
                      JOINT rMid2_End
                      {
                        OFFSET -1.4042 -1.926 1.125
                        CHANNELS 3 Zrotation Xrotation Yrotation
                        End Site
                        {
                          OFFSET -0.014 -0.0193 0.0113
                        }
                      }
                    }
                  }
                }
                JOINT rCarpal2
                {
                  OFFSET -2.0956 0.66 -0.3894
                  CHANNELS 3 Zrotation Xrotation Yrotation
                  JOINT rRing1
                  {
                    OFFSET -5.0395 -0.09 2.4971
                    CHANNELS 3 Zrotation Xrotation Yrotation
                    JOINT rRing2
                    {
                      OFFSET -3.7921 -1.552 1.4806
                      CHANNELS 3 Zrotation Xrotation Yrotation
                      JOINT rRing2_End
                      {
                        OFFSET -1.4655 -1.808 0.9609
                        CHANNELS 3 Zrotation Xrotation Yrotation
                        End Site
                        {
                          OFFSET -0.0147 -0.0181 0.0096
                        }
                      }
                    }
                  }
                  JOINT rPinky1
                  {
                    OFFSET -4.9141 -1.269 0.3592
                    CHANNELS 3 Zrotation Xrotation Yrotation
                    JOINT rPinky2
                    {
                      OFFSET -3.1477 -1.685 0.8462
                      CHANNELS 3 Zrotation Xrotation Yrotation
                      JOINT rPinky2_End
                      {
                        OFFSET -0.8055 -1.585 0.7955
                        CHANNELS 3 Zrotation Xrotation Yrotation
                        End Site
                        {
                          OFFSET -0.0081 -0.0158 0.008
                        }
                      }
                    }
                  }
                }
              }
            }
          }
        }
      }
    }
  }
  JOINT lThigh
  {
    OFFSET 8.367 -8.2066 0.5982
    CHANNELS 3 Zrotation Xrotation Yrotation
    JOINT lShin
    {
      OFFSET 2.1923 -43.463 -0.4932
      CHANNELS 3 Zrotation Xrotation Yrotation
      JOINT lFoot
      {
        OFFSET 0.7333 -45.8593 -2.6451
        CHANNELS 3 Zrotation Xrotation Yrotation
        End Site
        {
          OFFSET 2.6618 -4.2699 12.3931
        }
      }
    }
  }
  JOINT rThigh
  {
    OFFSET -8.367 -8.2066 0.5982
    CHANNELS 3 Zrotation Xrotation Yrotation
    JOINT rShin
    {
      OFFSET -2.1923 -43.463 -0.4931
      CHANNELS 3 Zrotation Xrotation Yrotation
      JOINT rFoot
      {
        OFFSET -0.7333 -45.8593 -2.6451
        CHANNELS 3 Zrotation Xrotation Yrotation
        End Site
        {
          OFFSET -2.6618 -4.2699 12.3931
        }
      }
    }
  }
}
MOTION
Frames:	4
Frame Time:	0.0333333
8.25929 6.75955 10.9839 -90 0 -0 2.39233 2.20868 -7.45501 5.05622 4.08605 -15.0102 5.05621 4.08605 -15.0102 24.3606 -1.82432 0.823251 8.61508 3.37438 0.0453774 -5.58658 -11.286 24.6863 -61.7612 14.1523 -36.9888 -16.1473 -0.310162 21.6265 -8.03865e-007 -4.60917e-008 -2.67242e-007 2.38542e-015 6.36111e-015 -3.18055e-015 -7.95139e-016 -6.36111e-015 -1.59028e-015 -7.95139e-016 -3.18055e-015 -0 2.38542e-015 6.36111e-015 -0 -2.38542e-015 -6.36111e-015 1.59028e-015 -1.76556e-031 -6.36111e-015 -1.59028e-015 -2.38542e-015 0 -3.18055e-015 -2.38542e-015 -6.36111e-015 1.59028e-015 -1.76556e-031 -6.36111e-015 -1.59028e-015 -2.38542e-015 0 -3.18055e-015 2.38542e-015 6.36111e-015 -0 -2.38542e-015 -6.36111e-015 1.59028e-015 -1.76556e-031 -6.36111e-015 -1.59028e-015 -2.38542e-015 0 -3.18055e-015 -2.38542e-015 -6.36111e-015 1.59028e-015 -1.76556e-031 -6.36111e-015 -1.59028e-015 -2.38542e-015 0 -3.18055e-015 -95.4084 -72.0671 -145.357 -15.1148 -11.6561 -20.71 30.7441 30.4033 -20.7853 -25.1458 50.1985 -16.8642 -1.94215e-006 -1.18268e-006 -2.34067e-006 -9.30912e-007 -4.43026e-007 7.58169e-007 3.18055e-015 6.75868e-015 -6.16232e-015 3.18055e-015 1.59028e-015 -9.93923e-016 -1.94215e-006 -1.18268e-006 -2.34067e-006 -9.30912e-007 -4.43026e-007 7.58169e-007 4.13804e-031 5.96354e-015 -3.97569e-015 -1.94215e-006 -1.18268e-006 -2.34067e-006 -9.30912e-007 -4.43026e-007 7.58169e-007 4.13804e-031 5.96354e-015 -3.97569e-015 3.18055e-015 1.59028e-015 -9.93923e-016 -1.94215e-006 -1.18268e-006 -2.34067e-006 -9.30912e-007 -4.43026e-007 7.58169e-007 4.13804e-031 5.96354e-015 -3.97569e-015 -1.94215e-006 -1.18268e-006 -2.34067e-006 -9.30912e-007 -4.43026e-007 7.58169e-007 4.13804e-031 5.96354e-015 -3.97569e-015 5.7075 7.74614 8.67297 4.34892 68.7631 -5.7613 2.21827 11.5418 2.71429 -9.94936 -13.9973 1.57531 53.3017 22.8707 -83.9318 14.29 40.1846 13.7187 
8.26247 6.75965 10.7851 -90 0 -0 2.37872 2.33973 -7.39192 5.04462 4.35159 -14.8909 5.04461 4.35158 -14.8909 24.3096 -1.8252 0.82167 8.58655 3.41313 0.0423137 -5.13638 -11.735 24.6669 -61.8956 14.2473 -37.1535 -16.3073 -0.282548 21.6297 1.07334e-006 2.82736e-007 2.14237e-006 -2.38542e-015 -3.18055e-015 -0 -1.59028e-015 -6.36111e-015 -0 -1.59028e-015 -9.54166e-015 -0 7.95139e-016 -3.18055e-015 1.59028e-015 -3.97569e-015 -6.36111e-015 6.36111e-015 -2.38542e-015 -3.18055e-015 -1.59028e-015 -2.38542e-015 -9.54166e-015 -0 -3.97569e-015 -6.36111e-015 6.36111e-015 -2.38542e-015 -3.18055e-015 -1.59028e-015 -2.38542e-015 -9.54166e-015 -0 7.95139e-016 -3.18055e-015 1.59028e-015 -3.97569e-015 -6.36111e-015 6.36111e-015 -2.38542e-015 -3.18055e-015 -1.59028e-015 -2.38542e-015 -9.54166e-015 -0 -3.97569e-015 -6.36111e-015 6.36111e-015 -2.38542e-015 -3.18055e-015 -1.59028e-015 -2.38542e-015 -9.54166e-015 -0 -96.1827 -71.7178 -146.495 -15.1148 -11.6561 -20.71 30.643 30.1751 -20.7964 -24.4875 50.4935 -17.2633 -3.18055e-015 -3.97569e-015 1.2921e-014 -4.8415e-031 -3.57812e-015 -7.7526e-015 6.75879e-032 2.78299e-015 -1.39149e-015 -3.18055e-015 -3.97569e-015 1.2921e-014 -3.18055e-015 -6.75868e-015 -4.57205e-015 -6.36111e-015 5.1684e-015 2.18663e-015 -3.18055e-015 1.19271e-015 3.18055e-015 -3.18055e-015 -6.75868e-015 -4.57205e-015 -6.36111e-015 5.1684e-015 2.18663e-015 -3.18055e-015 1.19271e-015 3.18055e-015 -3.18055e-015 -3.97569e-015 1.2921e-014 -3.18055e-015 -6.75868e-015 -4.57205e-015 -6.36111e-015 5.1684e-015 2.18663e-015 -3.18055e-015 1.19271e-015 3.18055e-015 -3.18055e-015 -6.75868e-015 -4.57205e-015 -6.36111e-015 5.1684e-015 2.18663e-015 -3.18055e-015 1.19271e-015 3.18055e-015 5.71295 7.46865 8.70236 4.51748 69.0732 -5.90926 2.21722 11.5695 2.71432 -9.9773 -14.1296 1.49818 53.2945 22.8692 -83.9347 14.2002 40.2212 13.6586 
8.26558 6.75973 10.5863 -90 0 -0 2.36483 2.47074 -7.32878 5.03219 4.61709 -14.7715 5.03219 4.61709 -14.7715 24.2579 -1.82576 0.820002 8.55802 3.45188 0.0392726 -4.68563 -12.1841 24.6509 -62.0298 14.3427 -37.3181 -16.4673 -0.254604 21.6328 7.95139e-016 6.36111e-015 1.59028e-015 -7.95139e-016 0 1.59028e-015 5.34608e-007 -1.89432e-007 -1.60796e-006 -1.59028e-015 -9.54166e-015 -0 -7.95139e-016 0 1.59028e-015 -3.18055e-015 -3.18055e-015 7.95139e-015 5.34608e-007 -1.89432e-007 -1.60796e-006 1.76556e-031 3.18055e-015 -3.18055e-015 -3.18055e-015 -3.18055e-015 7.95139e-015 5.34608e-007 -1.89432e-007 -1.60796e-006 1.76556e-031 3.18055e-015 -3.18055e-015 -7.95139e-016 0 1.59028e-015 -3.18055e-015 -3.18055e-015 7.95139e-015 5.34608e-007 -1.89432e-007 -1.60796e-006 1.76556e-031 3.18055e-015 -3.18055e-015 -3.18055e-015 -3.18055e-015 7.95139e-015 5.34608e-007 -1.89432e-007 -1.60796e-006 1.76556e-031 3.18055e-015 -3.18055e-015 -96.9207 -71.3639 -147.598 -15.1148 -11.6561 -20.71 30.5403 29.9483 -20.8073 -23.822 50.7855 -17.6701 1.69274e-006 1.09078e-006 2.56275e-006 -6.21197e-007 -2.93649e-007 5.05282e-007 -7.78733e-007 4.32158e-007 -3.49535e-006 -6.36111e-015 -1.59028e-015 1.59028e-015 1.69274e-006 1.09078e-006 2.56275e-006 -6.21197e-007 -2.93649e-007 5.05282e-007 -7.78733e-007 4.32158e-007 -3.49535e-006 1.69274e-006 1.09078e-006 2.56275e-006 -6.21197e-007 -2.93649e-007 5.05282e-007 -7.78733e-007 4.32158e-007 -3.49535e-006 -6.36111e-015 -1.59028e-015 1.59028e-015 1.69274e-006 1.09078e-006 2.56275e-006 -6.21197e-007 -2.93649e-007 5.05282e-007 -7.78733e-007 4.32158e-007 -3.49535e-006 1.69274e-006 1.09078e-006 2.56275e-006 -6.21197e-007 -2.93649e-007 5.05282e-007 -7.78733e-007 4.32158e-007 -3.49535e-006 5.71845 7.19077 8.7318 4.69077 69.3834 -6.06188 2.21626 11.5973 2.71435 -10.0053 -14.2618 1.42097 53.2871 22.8676 -83.9375 14.1103 40.2579 13.5985 
8.26865 6.75982 10.3874 -90 0 -0 2.35068 2.60172 -7.26561 5.01901 4.88256 -14.6521 5.01901 4.88256 -14.6521 24.2065 -1.8265 0.818366 8.52949 3.49065 0.0362363 -4.23433 -12.6332 24.6386 -62.1637 14.4384 -37.4825 -16.6272 -0.226365 21.636 -3.06412e-006 -6.46311e-006 8.38051e-007 2.16518e-007 -1.53291e-007 -1.15419e-006 -2.84551e-006 -4.13575e-006 2.07762e-006 2.6717e-007 -2.24625e-006 -5.18339e-007 -2.38542e-015 -6.36111e-015 1.59028e-015 2.16518e-007 -1.53291e-007 -1.15419e-006 -2.84551e-006 -4.13575e-006 2.07762e-006 2.6717e-007 -2.24625e-006 -5.18339e-007 2.16518e-007 -1.53291e-007 -1.15419e-006 -2.84551e-006 -4.13575e-006 2.07762e-006 2.6717e-007 -2.24625e-006 -5.18339e-007 -2.38542e-015 -6.36111e-015 1.59028e-015 2.16518e-007 -1.53291e-007 -1.15419e-006 -2.84551e-006 -4.13575e-006 2.07762e-006 2.6717e-007 -2.24625e-006 -5.18339e-007 2.16518e-007 -1.53291e-007 -1.15419e-006 -2.84551e-006 -4.13575e-006 2.07762e-006 2.6717e-007 -2.24625e-006 -5.18339e-007 -97.6243 -71.0057 -148.666 -15.1148 -11.6561 -20.71 30.4362 29.7228 -20.8179 -23.1491 51.0744 -18.0849 -3.18055e-015 -1.98785e-015 -1.05356e-014 1.24291e-006 5.85572e-007 -1.01044e-006 3.18055e-015 -1.59028e-015 1.59028e-015 -3.18055e-015 -3.97569e-016 -7.15625e-015 -3.18055e-015 7.95139e-016 5.96354e-016 1.24291e-006 5.85572e-007 -1.01044e-006 3.18055e-015 -3.97569e-015 3.18055e-015 -3.18055e-015 7.95139e-016 5.96354e-016 1.24291e-006 5.85572e-007 -1.01044e-006 3.18055e-015 -3.97569e-015 3.18055e-015 -3.18055e-015 -3.97569e-016 -7.15625e-015 -3.18055e-015 7.95139e-016 5.96354e-016 1.24291e-006 5.85572e-007 -1.01044e-006 3.18055e-015 -3.97569e-015 3.18055e-015 -3.18055e-015 7.95139e-016 5.96354e-016 1.24291e-006 5.85572e-007 -1.01044e-006 3.18055e-015 -3.97569e-015 3.18055e-015 5.7241 6.91308 8.76126 4.86913 69.6931 -6.21963 2.21523 11.6252 2.71437 -10.0336 -14.394 1.34365 53.2798 22.866 -83.9403 14.0204 40.2947 13.5386 
